<?xml version="1.0" encoding="UTF-8" standalone="no"?>
<!-- Uploaded to: SVG Repo, www.svgrepo.com, Transformed by: SVG Repo Mixer Tools -->

<svg
   width="64px"
   height="64px"
   viewBox="0 0 24 24"
   fill="none"
   version="1.1"
   id="svg1"
   xmlns="http://www.w3.org/2000/svg"
   xmlns:svg="http://www.w3.org/2000/svg">
  <defs
     id="defs1" />
  <g
     id="SVGRepo_bgCarrier"
     stroke-width="0" />
  <g
     id="SVGRepo_tracerCarrier"
     stroke-linecap="round"
     stroke-linejoin="round" />
  <path
     style="color:#000000;fill:#ffffff;stroke:none;stroke-width:2.8847;-inkscape-stroke:none"
     d="M 6.4093485,1.4193769 C 5.6835864,1.4908468 4.9856061,1.6784955 4.3388897,1.9741114 1.7520241,3.1565748 -1.9999999e-7,5.8704493 -1.9999999e-7,8.9815011 -1.9999999e-7,11.94614 1.2732028,14.30539 2.8726585,16.106437 4.4721139,17.907485 6.3906326,19.246506 7.8982642,20.435015 9.0024751,21.305498 10.203167,22.420923 12,22.420923 c 1.796833,0 2.997503,-1.115432 4.101736,-1.985908 1.507634,-1.18851 3.426159,-2.52753 5.025605,-4.328578 C 22.726789,14.305389 24,11.946137 24,8.9815011 24,5.8704453 22.247979,3.1565733 19.66111,1.9741114 17.38873,0.93540228 14.505045,1.3312147 12,3.3207345 10.207879,1.8974322 8.2337089,1.2397216 6.4093485,1.4193769 Z M 8.0446812,4.3147197 C 8.9559996,4.5208725 9.9361041,5.0773769 10.960646,6.1418379 L 12,7.2224359 13.039354,6.1418379 c 2.049062,-2.1289172 3.916946,-2.2323524 5.42155,-1.5445953 1.504605,0.687757 2.656127,2.3607767 2.656127,4.3842585 0,2.1698589 -0.847609,3.7462389 -2.146762,5.2091439 -1.299151,1.462902 -3.055412,2.717468 -4.654407,3.978002 -1.088347,0.857952 -2.000994,1.369307 -2.315862,1.369307 -0.314868,0 -1.227558,-0.511363 -2.3158619,-1.369307 C 8.0851409,16.908112 6.3288902,15.653547 5.0297301,14.190645 3.7305699,12.72774 2.8829694,11.151358 2.8829694,8.9815011 c 0,-2.0234858 1.1515292,-3.696503 2.6561266,-4.3842585 C 6.2913947,4.2533648 7.1333626,4.108567 8.0446812,4.3147197 Z"
     id="path4" />
</svg>
